<svg width="80" height="80" viewBox="0 0 80 80" fill="none" xmlns="http://www.w3.org/2000/svg">
<path d="M10 10C4.47715 10 0 14.4772 0 20V60L0.000129193 60.0514C0.0277999 65.5506 4.49429 70 10 70H37.5C38.8807 70 40 68.8807 40 67.5C40 66.1193 38.8807 65 37.5 65H10C7.68575 65 5.73872 63.4277 5.16882 61.2931L33.3709 43.938L40 47.9155L75 26.9155V42.5C75 43.8807 76.1193 45 77.5 45C78.8807 45 80 43.8807 80 42.5V20C80 14.4772 75.5229 10 70 10H10ZM28.5404 41.0397L5 55.5261V26.9155L28.5404 41.0397ZM5 21.0845V20C5 17.2386 7.23858 15 10 15H70C72.7614 15 75 17.2386 75 20V21.0845L40 42.0845L5 21.0845Z" fill="black"/>
<path d="M62.5 80C72.165 80 80 72.165 80 62.5C80 52.835 72.165 45 62.5 45C52.835 45 45 52.835 45 62.5C45 72.165 52.835 80 62.5 80ZM65 55V62.5C65 63.8807 63.8807 65 62.5 65C61.1193 65 60 63.8807 60 62.5V55C60 53.6193 61.1193 52.5 62.5 52.5C63.8807 52.5 65 53.6193 65 55ZM65 70C65 71.3807 63.8807 72.5 62.5 72.5C61.1193 72.5 60 71.3807 60 70C60 68.6193 61.1193 67.5 62.5 67.5C63.8807 67.5 65 68.6193 65 70Z" fill="black"/>
</svg>
