<svg width="80" height="80" viewBox="0 0 80 80" fill="none" xmlns="http://www.w3.org/2000/svg">
<path d="M20 0C14.4772 0 10 4.47715 10 10V15.6664L5.29412 18.1762C2.03548 19.9142 0 23.3066 0 26.9998V69.9998C0 75.5226 4.47716 79.9998 10 79.9998H70C75.5229 79.9998 80 75.5226 80 69.9998V26.9998C80 23.3066 77.9645 19.9142 74.7059 18.1762L70 15.6664V10C70 4.47715 65.5229 0 60 0H20ZM70 21.3331L72.3529 22.588C73.9823 23.457 75 25.1532 75 26.9998V31.0843L70 34.0843V21.3331ZM65 37.0843L46.25 48.3343L40 44.5843L33.75 48.3343L15 37.0843V10C15 7.23858 17.2386 5 20 5H60C62.7614 5 65 7.23858 65 10V37.0843ZM10 34.0843L5 31.0843V26.9998C5 25.1532 6.01774 23.457 7.64706 22.588L10 21.3331V34.0843ZM75 36.9152V65.5843L51.1091 51.2498L75 36.9152ZM74.8263 71.311C74.2502 73.4364 72.3077 74.9998 70 74.9998H10C7.69232 74.9998 5.74977 73.4364 5.1737 71.311L40 50.4152L74.8263 71.311ZM5 65.5843V36.9152L28.8909 51.2498L5 65.5843Z" fill="black"/>
</svg>
